<?xml version="1.0" encoding="utf-8"?>
<!-- Generator: Adobe Illustrator 24.2.2, SVG Export Plug-In . SVG Version: 6.00 Build 0)  -->
<svg xmlns="http://www.w3.org/2000/svg" xmlns:xlink="http://www.w3.org/1999/xlink" version="1.1" id="Layer_2" x="0px" y="0px" viewBox="0 0 4218.28 2160.59" style="enable-background:new 0 0 4218.28 2160.59;" xml:space="preserve">
<style type="text/css">
	.st0{fill:#FFFFFF;}
	.st1{fill:#F1F2F2;}
	.st2{fill:#FEC088;}
	.st3{fill:#FEA478;}
	.st4{fill:#232020;}
	.st5{fill:#FF7D6F;}
	.st6{fill:#94989A;}
	.st7{fill:#FFE117;}
	.st8{fill:#FFC200;}
	.st9{fill:#AA2533;}
	.st10{fill:none;}
</style>

<ellipse class="st1" cx="294.75" cy="1937.49" rx="205.69" ry="47.01"/>
<ellipse class="st1" cx="855.57" cy="1934.34" rx="205.69" ry="50.16"/>
<ellipse class="st1" cx="1769.28" cy="1933.67" rx="379.62" ry="63.37"/>
<ellipse class="st1" cx="2684.35" cy="1935.69" rx="292.4" ry="63.37"/>
<ellipse class="st1" cx="3846.78" cy="1926.4" rx="292.4" ry="72.66"/>
<g>
	<g>
		<path class="st2" d="M188.54,1689.49c0,0-144.28,230.84,99.3,231.69c243.57,0.85,103.54-200.29,84.02-231.69H188.54z"/>
		<g>
			<path class="st3" d="M253.76,1523.98c0,0,28.86,24.75,45.83,0c0,0,42.4,9.9,54.44-16.87c-2.99-7.21-5.88-13.98-8.53-20.05     c-5.21-2.73-11.12-4.83-18.12-6.42c-64.9-14.75-86.15,1.39-101.84,12.8c-4.95,3.6-8.92,7.45-12.26,11.56     C213.65,1521.68,221,1538.42,253.76,1523.98z"/>
			<path class="st2" d="M354.03,1507.11c-12.05,26.77-54.44,16.87-54.44,16.87c-16.97,24.75-45.83,0-45.83,0     c-32.76,14.44-40.1-2.3-40.48-18.98c-15.57,19.12-17.55,43.97-41.21,76.92c-2.2,3.07-4.15,6.26-5.85,9.55     c-5.73,11.05-8.65,23.21-8.82,35.52c77.53,108.45,222.26,50.73,231.3,13.28C395.03,1614.04,372.57,1551.8,354.03,1507.11z"/>
			<path class="st2" d="M379.27,1547.4c0,0,36.28-43.92,57.29-11.46c21.01,32.46-8.27,63.65-41.37,62.38L379.27,1547.4z"/>
			<path class="st3" d="M402.28,1565.58c0,0,2.33-28.01,17.08-22.91c14.75,5.09,14.33,23.76,4.14,25.89     C413.31,1570.67,402.28,1565.58,402.28,1565.58z"/>
			<path class="st2" d="M199.42,1541.71c0,0-36.28-43.92-57.29-11.46c-21.01,32.46,8.27,63.65,41.37,62.38L199.42,1541.71z"/>
			<path class="st3" d="M176.42,1559.9c0,0-2.33-28.01-17.08-22.91c-14.75,5.09-14.33,23.76-4.14,25.88     C165.38,1564.99,176.42,1559.9,176.42,1559.9z"/>
			<path class="st3" d="M410.13,1595.29c-30.77-64.73-38.57-94.56-64.63-108.23c19.07,43.69,50.56,122.75,43.2,153.21     c-9.04,37.45-153.77,95.16-231.3-13.28c-0.59,43.33,33.14,88.44,99.97,93.06c92.33,6.38,155.08-25.13,161.99-75.52     C421.4,1629.6,418.56,1613.03,410.13,1595.29z"/>
			<path class="st4" d="M319.1,1569.07c0,0,26.73-19.61,49.01,3.94C368.12,1573.01,349.66,1539.67,319.1,1569.07z"/>
			<path class="st4" d="M200.4,1564.28c0,0,26.73-19.61,49.01,3.94C249.42,1568.22,230.96,1534.88,200.4,1564.28z"/>
			<path class="st4" d="M265,1617.56c0,0-1.91-29.51,21.01-19.21C286.01,1598.36,268.18,1597.2,265,1617.56z"/>
			<ellipse class="st5" cx="359.64" cy="1593.51" rx="26.53" ry="15.48"/>
			<path class="st5" d="M225.76,1587.07c0,8.55-11.88,15.48-26.53,15.48s-26.53-6.93-26.53-15.48c0-8.55,11.88-15.48,26.53-15.48     S225.76,1578.52,225.76,1587.07z"/>
			<g>
				<path class="st6" d="M250.47,1455.3c0,0,1.61,13.72,13.66,10.29c0,0-17.1,22.29,11.62,8.57c0,0,10.47,21.71,32.15,9.95      c0,0,10.03,10.29,24.85-8.23c-4.44-4.69-27.66-30.55-29.21-60.01c-1.71-32.58-33.43-36.86-33.43-5.14      c0,31.72,6.86,40.29,6.86,40.29s-30.61-28.39-47.48-8.61C231.58,1449.71,237.28,1455.64,250.47,1455.3z"/>
				<path class="st4" d="M332.75,1475.88c-14.82,18.52-24.85,8.23-24.85,8.23c-21.68,11.76-32.15-9.95-32.15-9.95      c-28.72,13.72-11.62-8.57-11.62-8.57c-12.05,3.43-13.66-10.29-13.66-10.29c-13.18,0.34-18.89-5.6-20.98-12.9      c-1.42,1.67-2.76,3.64-3.96,6.04c-15.43,30.86,22.29,16.29,22.29,16.29s-32.58,20.57-14.57,36.86      c18,16.29,40.29-14.57,40.29-14.57s19.72,28.29,36.86,12c0,0,30.86,4.24,23.15-22.31      C333.54,1476.71,333.22,1476.37,332.75,1475.88z"/>
			</g>
		</g>
		<g>
			<path class="st7" d="M386.16,1875.36c27.78-11.16,21.54-43.67,11.11-69.47c-122.08,39.73-255.54-10.3-255.54-10.3     s-6.96,30.71,5.46,62.39C185.86,1884.8,268.27,1922.71,386.16,1875.36z"/>
			<path class="st8" d="M424.06,1795.58c-8.83,3.97-17.78,7.37-26.79,10.3c10.44,25.81,16.67,58.32-11.11,69.47     c-117.89,47.36-200.3,9.44-238.98-17.39c13.94,35.56,52.31,72.35,152.4,68.31C488.84,1918.64,424.06,1795.58,424.06,1795.58z"/>
		</g>
		<path class="st3" d="M294.38,1747.2c-7.64-29.7-34.8-3.39-34.8-3.39s-65.2-13.9-97.45,3.08l26.4-57.39    c-7.6-6.69-24.79,0.4-41.14,13.77c-31.84,26.02-60.52,75.88-9.17,94.44c9.95,3.6,19.7,5.56,29.01,6.39    c42.3,3.78,75.38-16.15,75.38-16.15S310.14,1808.46,294.38,1747.2z"/>
		<path class="st3" d="M417.55,1711.18c-16.35-13.37-33.54-20.45-41.14-13.77l26.4,57.39c-32.25-16.97-97.45-3.08-97.45-3.08    s-27.16-26.31-34.8,3.4c-15.75,61.26,51.77,40.74,51.77,40.74s33.07,19.94,75.38,16.15c9.31-0.83,19.06-2.8,29.01-6.39    C478.06,1787.06,449.38,1737.21,417.55,1711.18z"/>
		<g>
			<path class="st2" d="M161.25,1883.63c-18.22-26.25-34.79-25.98-47.03-18.74c-5.94,13.2-7.75,31.5,1.62,56.3     c22.59,59.73,121.17,27.22,140.22,20.3l0,0C250.95,1908.96,198.8,1937.73,161.25,1883.63z"/>
			<path class="st3" d="M298.31,1893.6c-12.31-14-45.83,0-45.83,0c-14-16.55-53.04-10.18-53.04-10.18     c-9.34-26.31-53.89-48.38-53.89-48.38s-21.41,7.8-31.33,29.84c12.23-7.24,28.81-7.51,47.03,18.74     c37.55,54.1,89.7,25.33,94.82,57.86l0,0c2.06-0.75,3.21-1.2,3.21-1.2C297.89,1941.98,310.62,1907.61,298.31,1893.6z"/>
		</g>
		<g>
			<path class="st2" d="M417.61,1891.08c18.22-26.25,34.79-25.98,47.03-18.74c5.94,13.2,7.75,31.5-1.62,56.3     c-22.59,59.73-121.17,27.22-140.22,20.3l0,0C327.91,1916.41,380.06,1945.19,417.61,1891.08z"/>
			<path class="st3" d="M280.55,1901.06c12.31-14,45.83,0,45.83,0c14-16.55,53.04-10.18,53.04-10.18     c9.34-26.31,53.89-48.38,53.89-48.38s21.41,7.8,31.33,29.84c-12.23-7.24-28.81-7.51-47.03,18.74     c-37.55,54.1-89.7,25.33-94.82,57.86l0,0c-2.06-0.75-3.21-1.2-3.21-1.2C280.97,1949.43,268.24,1915.06,280.55,1901.06z"/>
		</g>
		<g>
			<path class="st5" d="M249.71,1655.97c5.7,5.24,13.64,9.56,24.73,11.28c14.46,2.25,25.56-3.3,33.79-11.06     C286.18,1635.76,261.17,1648.16,249.71,1655.97z"/>
			<path class="st9" d="M327.44,1624.82h-92.19c0,0,0.54,18.36,14.46,31.15c11.46-7.81,36.47-20.21,58.51,0.22     C321.7,1643.47,327.44,1624.82,327.44,1624.82z"/>
		</g>
	</g>
	<g>
		<g>
			<path class="st6" d="M824.2,1873.43c32.77-38.47-0.21-218.47,21.78-255.57c0,0,54.96,59.08,83.82,230.84     c0,0,38.47,46.72,57.71-16.49c10.84-35.62,22.99-93.94,31.04-148.39c1.72-57.34-0.24-117.52-9.99-168.95l-279.27-24.36     c0,0-2.04,243.99,29.82,373.14C777.78,1880.35,804.74,1896.28,824.2,1873.43z"/>
			<path class="st4" d="M987.51,1832.2c-19.24,63.21-57.71,16.49-57.71,16.49c-28.85-171.75-83.82-230.84-83.82-230.84     c-21.98,37.1,10.99,217.1-21.78,255.57c-19.46,22.85-46.42,6.92-65.1-9.78c3.58,14.51,7.58,27.59,12.07,38.69     c0,0,49.51,15.11,81.24,0c0,0-6.35-147.63,10.16-254.5c0,0,52.05,132.21,50.78,253.13c0,0,59.66,19.24,83.78,0     c0,0,18-102.93,21.42-217.14C1010.5,1738.27,998.35,1796.58,987.51,1832.2z"/>
		</g>
		<path class="st8" d="M789.92,1082.26c0,0-62.89,50.56-85.86,134.37l24.81,27.38l70.39-123.56L789.92,1082.26z"/>
		<g>
			<path class="st7" d="M917.07,1075.49l-120.81,31.97c0,0-138.01,186.91-76.32,392.5C1015.75,1566.69,943.46,1184.9,917.07,1075.49     z"/>
			<path class="st8" d="M1010.6,1137.83c0,0-27.48-47.32-68.7-68.91l-24.83,6.57c26.39,109.4,98.69,491.19-197.13,424.47     c2.27,7.57,4.78,15.16,7.61,22.77c0,0,120.91,74.2,283.05,0C1010.6,1522.74,994.12,1209.1,1010.6,1137.83z"/>
		</g>
		<path class="st4" d="M1058.95,654.66c0,0,19.92-13.05,30.23,0c10.31,13.05-15.11,23.73-15.11,23.73L1058.95,654.66z"/>
		<g>
			<path class="st8" d="M921.15,608.29c0,0,101.68-24.73,154.58,58.4c52.9,83.13-11.68,149.77-46.72,155.61L921.15,608.29z"/>
			<path class="st7" d="M802.99,648.14c0,0-104.43-92.75-11.68-110.61c92.75-17.86,147.71,45.34,194.43,122.29     C985.73,659.82,852.45,626.84,802.99,648.14z"/>
		</g>
		<path class="st3" d="M982.01,663l-156.64-38.47l-57.69,76.79c24.91,2.61,56.39-10.93,56.39-10.93c17.47,40.88,76.87,0,76.87,0    c21.98,45.34,82.44,46.72,82.44,46.72c8.24,27.48,8.24,129.16-133.28,184.12c-87.05,33.81-138.22-21.8-164.73-69.62    c-2.94,47.08,19.74,106.85,120.76,138.41c197.86,61.83,240.46-169.45,240.46-169.45L982.01,663z"/>
		<path class="st2" d="M850.1,921.22c141.53-54.96,141.53-156.64,133.28-184.12c0,0-60.46-1.37-82.44-46.72c0,0-59.41,40.88-76.87,0    c0,0-31.47,13.54-56.39,10.93l-28.88,38.44c0,0-5.5,30.42-27.48,45.54c-9.09,6.25-23.88,33.13-25.95,66.32    C711.88,899.42,763.05,955.03,850.1,921.22z"/>
		<path class="st2" d="M997.12,841.53c0,0,46.72-53.59,68.7,0c21.98,53.59-56.34,46.72-68.7,37.1V841.53z"/>
		<path class="st2" d="M706.97,817.71c0,0-65.96-11.57-38.19-51.5c27.77-39.93,55.55,10.54,55.55,10.54L706.97,817.71z"/>
		<path class="st3" d="M1012.24,855.95c0,0,10.31-24.73,26.79-13.4C1055.52,853.89,1012.24,855.95,1012.24,855.95z"/>
		<path class="st4" d="M889.61,788.97c0,0,27.61-20.89,54.62,6.18C944.22,795.15,921.55,755.99,889.61,788.97z"/>
		<path class="st4" d="M758.23,764.05c0,0,27.61-20.89,54.62,6.18C812.84,770.23,790.17,731.07,758.23,764.05z"/>
		<path class="st4" d="M820.56,817.71c0,0,10.31-31.83,30.92-12.25C851.48,805.46,836.02,795.95,820.56,817.71z"/>
		<g>
			<path class="st5" d="M781.9,901.54c9.23,8.49,22.08,15.47,40.03,18.27c23.4,3.65,41.38-5.35,54.7-17.91     C840.95,868.82,800.46,888.9,781.9,901.54z"/>
			<path class="st9" d="M907.75,851.11H758.49c0,0,0.88,29.72,23.41,50.43c18.56-12.64,59.05-32.73,94.73,0.36     C898.46,881.31,907.75,851.11,907.75,851.11z"/>
		</g>
		<path class="st0" d="M875.87,871.76h-85.02c-6.17,0-11.16-5-11.16-11.16v-9.48h107.35v9.48    C887.03,866.76,882.03,871.76,875.87,871.76z"/>
		<g>
			<path class="st4" d="M901.63,673.89c-13.74,15.11-32.29,4.5-32.29,4.5c-38.47,31.98-77.63,5.81-77.63,5.81     c-8.93,19.92-35.73,30.23-55.65,17.86c-19.92-12.37,15.11-36.41,15.11-36.41c-15.11,7.56-21.98,1.37-30.92-13.74     c-8.93-15.11,37.97-16.49,37.97-16.49c-33.5-15.88-51.52-53.64-59.63-76.21c-24.24,23.6,30.88,70.63,30.88,70.63     s-36.41-11.68-48.78,21.39c-12.37,33.07,44.66,26.7,44.66,26.7s-61.83,15.11-23.36,51.53s105.8-31.6,105.8-31.6     c37.1,42.6,80.38-11.68,80.38-11.68c19.33,52.78,76,55.47,102.03,53.74C919.4,733.8,901.63,673.89,901.63,673.89z"/>
			<path class="st6" d="M1002.22,678.39c-25.42-41.45-92.75-71.9-144.27-67.1c-51.53,4.81-97.56-51.53-97.56-51.53     s-10.99-26.79-53.59-6.18c-3.43,1.66-6.09,3.56-8.21,5.63c8.11,22.57,26.13,60.33,59.63,76.21c0,0-46.9,1.37-37.97,16.49     c8.93,15.11,15.8,21.3,30.92,13.74c0,0-35.04,24.05-15.11,36.41c19.92,12.37,46.72,2.06,55.65-17.86c0,0,39.16,26.17,77.63-5.81     c0,0,18.55,10.62,32.29-4.5c0,0,17.78,59.91,88.58,66.02c8.19-0.55,13.39-1.52,13.39-1.52c-6.18,54.27,39.16,72.59,39.16,72.59     C1043.44,763.36,1027.64,719.84,1002.22,678.39z"/>
		</g>
		<path class="st3" d="M829.32,985.8c0,0,23.36,43.97,0,70.08c0,0,1.37,50.84,42.59,42.6c41.22-8.24,65.95-35.73,67.33-65.95    c1.37-30.23,23.36-88.81,31.6-91.81L829.32,985.8z"/>
		<path class="st0" d="M831.88,1052.55c0,0-5.66,34.75,28.87,43.51c30.28,7.68,78.31-33.09,76.25-57c0,0,81.96,58.23-8.24,112.34    c-49.47,29.67-57.71-29.94-57.71-29.94s-43.28,54.45-68.01,29.94C769.73,1118.39,774.17,1073.46,831.88,1052.55z"/>
		<path class="st3" d="M1063.41,1256.48l-25.58,12.17c13.19,18.02,25.75,42.74,8.75,56.45c-53.09,42.81-169.95,27.57-169.95,27.57    c-18.31,31.63-42.87,26.73-56.83,20.26c1.13,2.77,2.58,5.64,4.4,8.59c19.44,31.6,65.4-8.24,65.4-8.24    c73.85,9.62,125.38-10.99,173.81-26.11C1111.84,1332.06,1063.41,1256.48,1063.41,1256.48z"/>
		<path class="st2" d="M876.64,1352.67c0,0,116.86,15.24,169.95-27.57c16.99-13.7,4.44-38.43-8.75-56.45l-37.87,18.01l3.49,15.17    c-32.14-1.37-126.82,23.27-126.82,23.27l-11.36-12.78c-26.05-14.24-13.8,22.48-13.8,22.48c-22.42-6.23-42.58,11.26-31.67,38.13    C833.77,1379.39,858.32,1384.29,876.64,1352.67z"/>
		<path class="st7" d="M967.95,1197.94c11.31,38.41,29.34,93.37,42.66,103.89c0,0,28.62-30.16,52.81-37.24    C1026.12,1179.59,986.46,1187.6,967.95,1197.94z"/>
		<path class="st8" d="M1080.94,1264.73c0,0-53.67-127.34-90.73-155.04l-32.93,50c0,0,4.26,16.48,10.67,38.25    c18.51-10.34,58.17-18.35,95.46,66.66C1069.76,1262.74,1075.8,1262.45,1080.94,1264.73z"/>
		<path class="st3" d="M832.52,1282.25c-5.5,11.24-17.26,24.59-41.5,19.58c0,0-74.88,21.3-74.2-14.43l12.05-43.39    c0,0-12.53-13.83-18.67-20.6c0,0-28.6,78.52,0,99.77c28.6,21.24,89.06,0,89.06,0s45.65,4.94,36.56-31.56    C834.9,1287.9,833.78,1284.82,832.52,1282.25z"/>
		<path class="st2" d="M791.02,1301.83c24.24,5.01,36-8.34,41.5-19.58c-11.1-22.68-33.26-4.24-33.26-4.24s-4.49-38.02-17.36-13.29    l0.27,21.3c0,0-44.74-8.01-65.35,1.37C716.13,1323.13,791.02,1301.83,791.02,1301.83z"/>
		<path class="st4" d="M715.28,1942.96c11.45,49.07,132.14-2.29,136.88-8.39c1.96-2.52,2.31-8.82,2.05-15.38    C828.68,1936.55,769.81,1968.83,715.28,1942.96z"/>
		<path class="st7" d="M854.22,1919.19c-0.38-9.54-2.05-19.66-2.05-19.66s-52.98,22.45-83.21-2.97c0,0-62.44-8.71-54.2,44.19    c0.12,0.78,0.35,1.47,0.52,2.2C769.81,1968.83,828.68,1936.55,854.22,1919.19z"/>
		<path class="st4" d="M859.56,1942.96c11.45,49.07,132.14-2.29,136.88-8.39c1.96-2.52,2.31-8.82,2.05-15.38    C972.96,1936.55,914.09,1968.83,859.56,1942.96z"/>
		<path class="st7" d="M998.49,1919.19c-0.38-9.54-2.05-19.66-2.05-19.66s-52.98,22.45-83.21-2.97c0,0-62.44-8.71-54.2,44.19    c0.12,0.78,0.35,1.47,0.52,2.2C914.09,1968.83,972.96,1936.55,998.49,1919.19z"/>
	</g>
	<g>
		<path class="st3" d="M2181.74,985.08c0,0,6.05-54.1,48.36-39.9c42.32,14.2,21.16,65.59,10.58,68.61c0,0,29.85,22.32-22.1,17.96    L2181.74,985.08z"/>
		<g>
			<path class="st4" d="M1654.29,1901.69c-68.01-20.4,57.3-49.87,57.3-49.87c-49.25,2.27-107.17,43.07-83.72-201.76     c23.45-244.83-25.71-432.99-21.18-401.25c4.53,31.74-22.67,324.18-40.81,379.4c-18.14,55.22-138.51,0-138.51,0     c57.25,45.79,147.11,46.94,147.11,46.94s-54.41,130.71-45.34,177.57s-40.8,43.42-40.8,74.61c0,31.19,401.25,69.19,564.47-12.15     c0,0-11.85-41.99-31.87-79.93C1939.89,1935.2,1716.5,1920.35,1654.29,1901.69z"/>
			<path class="st4" d="M1901.02,1070.96c15.43,42.12,51.45,202.94,51.45,202.94s190.12,153.62,326.58,164.09     c0,0,0.07-53.67-6.89-129.54C2066.71,1314.54,1928.3,1117.55,1901.02,1070.96z"/>
			<path class="st6" d="M1901.02,1070.96c-4.33-7.39-5.89-11.04-4.44-9.44C1897.72,1062.78,1899.23,1066.09,1901.02,1070.96     c27.28,46.59,165.69,243.58,371.15,237.49c-9.74-106.27-33.28-256.12-90.15-363.26c0,0-77.08,105.93-122.42,140.24     s-142.82-128.91-179.09-140.24l-374.05,77.08c0,0-138.28,396.72-124.68,523.67c3.97,37.02,22.02,63.43,45.59,82.28     c0.01,0,120.38,55.22,138.51,0c18.14-55.23,45.34-347.66,40.81-379.4c-4.53-31.74,44.63,156.42,21.18,401.25     c-23.45,244.83,34.47,204.03,83.72,201.76c0,0-125.3,29.47-57.3,49.87c62.21,18.66,285.6,33.51,366.64-66.45     c-8.99-17.03-19.62-33.24-31.57-44.48c-32.83-30.87-10.66-330.98-25.32-464.42l-11.57-52.45     C1952.47,1273.9,1916.45,1113.08,1901.02,1070.96z"/>
		</g>
		<path class="st4" d="M1475.24,512.48c0,0-178.33,0.13-185.89-43.76c-7.56-43.89,22.67-164.8,43.83-179.91    s184.38-120.9,214.61-107.3s139.04,63.48,155.66,83.12s-37.78,102.89-58.94,117.94L1475.24,512.48z"/>
		<path class="st8" d="M1608.45,377.19c0,0-3.02-52.52-9.07-66.12c0,0-148.11,1.09-188.91,107.85c0,0,19.65,44.92,55.92,52.41    L1608.45,377.19z"/>
		<g>
			<path class="st2" d="M1563.11,506.76c0,0-4.53,49.62-30.23,54.87c0,0,31.74,207.77,202.52,166.97     c77.3-18.47,114.03-49.82,131.09-78.61c-5.96-73.22-75.53-146.14-87.26-156.42c-9.23-8.08-17.28-23.28-22.96-36.25     C1715.11,486.73,1636.58,531.12,1563.11,506.76z"/>
			<path class="st3" d="M1735.4,728.6c-170.78,40.81-202.52-166.97-202.52-166.97c25.69-5.26,30.23-54.87,30.23-54.87     c73.47,24.37,152-20.03,193.16-49.44c-5.49-12.53-8.78-22.99-8.78-22.99l-34-51.81l-190.42,51.81c0,0-47.61-13.28-31.74,162.84     c15.87,176.12,154.15,247.8,308.31,162.84c54.43-30,70.11-70.05,66.86-110.02C1849.43,678.78,1812.7,710.13,1735.4,728.6z"/>
			<g>
				<g>
					<path class="st5" d="M1670.32,689.78c11.63,7.42,26.89,12.51,46.87,12.09c26.05-0.55,43.79-13.74,55.8-29.91       C1727.98,642.99,1687.99,672.53,1670.32,689.78z"/>
					<path class="st9" d="M1796.92,610.98l-161.65,28.68c0,0,6.66,32.01,35.05,50.12c17.67-17.25,57.66-46.79,102.67-17.82       C1792.66,645.47,1796.92,610.98,1796.92,610.98z"/>
				</g>
				<path class="st0" d="M1766.36,639.47l-92.07,16.34c-6.68,1.18-13.05-3.27-14.24-9.95l-1.82-10.27l116.26-20.63l1.82,10.27      C1777.49,631.91,1773.04,638.28,1766.36,639.47z"/>
			</g>
			<path class="st4" d="M1577.47,589.1c0,0,18.89-53.19,69.52-23.72C1646.99,565.37,1601.74,550.05,1577.47,589.1z"/>
			<path class="st4" d="M1721.66,545.95c0,0,18.89-53.19,69.52-23.72C1791.18,522.23,1745.93,506.9,1721.66,545.95z"/>
			<path class="st4" d="M1686.28,583.51c0,0,37.95-27.91,41.56,5.59C1727.84,589.1,1718.02,565.37,1686.28,583.51z"/>
			<path class="st2" d="M1504.17,619.03c0,0-104.28-8.31-80.85,53.65c23.43,61.96,97.48-3.02,97.48-3.02L1504.17,619.03z"/>
			<path class="st3" d="M1495.86,643.96c0,0-56.67-17.38-44.58,9.82C1463.36,680.99,1495.86,643.96,1495.86,643.96z"/>
		</g>
		<g>
			<path class="st6" d="M1520.45,466.57c0,0,230.7-50.49,208.83-107.75c-26.97-5.9-175.06-31.96-243.59,88.65     c0,0-60.45,33.25-28.71,99.75c0,0-0.35,2.2-0.65,5.89C1485.05,546.21,1521.36,525.81,1520.45,466.57z"/>
			<path class="st4" d="M1769.81,382.49c0,0,30.23-56.25-6.05-47.02c-36.27,9.24-30.23,24.35-30.23,24.35s-1.5-0.39-4.26-1     c21.87,57.26-208.83,107.75-208.83,107.75c0.92,59.24-35.39,79.64-64.13,86.54c-1.13,13.55-1.73,47.32,17.28,67.13     c0,0,93.7-21.23,71.03-153.67c0,0,202.52,21.71,269.01-84.08C1880.14,276.7,1769.81,382.49,1769.81,382.49z"/>
		</g>
		<path class="st6" d="M1300.14,457.31c0,0,37.78,70.12,18.14,95.68l16.62,3.49c0,0,9.54-66.19-17.38-101.44L1300.14,457.31z"/>
		<path class="st7" d="M1327.53,550.01c0,0,18.14,1.09,3.97,39.08l-24.37-4.51C1307.13,584.59,1304.3,546.61,1327.53,550.01z"/>
		<path class="st3" d="M1768.53,755.36c0,0-33.36,48.3-22.78,140.52c0,0-69.52,21.59-102.77-20.93c0,0,4.53-43.17-15.11-109.34    L1768.53,755.36z"/>
		<g>
			<path class="st4" d="M1803.41,1210.27c49.16,69.65,41.57-172.88,93.17-254.86c-35.2-38.02-95.15-91.25-152.8-88.32     c0,0-1.98,35.25-27.68,29.23c-25.69-6.02-71.01-29.11-71.01-29.11s-95.01,38.27-137.86,127.05     C1572.97,1030,1746.08,1129.05,1803.41,1210.27z"/>
			<path class="st7" d="M1896.58,955.41c-51.6,81.97-44.01,324.51-93.17,254.86c-57.33-81.21-230.43-180.26-296.18-216.02     c-4.57,9.47-8.56,19.49-11.76,30.13c0,0,248.01,146.6,309.14,238.79c61.13,92.19,73.22-233.13,123.09-270.72     C1927.7,992.45,1915.82,976.19,1896.58,955.41z"/>
		</g>
		<path class="st6" d="M1901.02,1070.96c-1.78-4.87-3.3-8.18-4.44-9.44C1895.13,1059.92,1896.69,1063.57,1901.02,1070.96z"/>
		<path class="st6" d="M1964.04,1326.34c-2.57-23.35-6.25-41.64-11.57-52.45L1964.04,1326.34z"/>
	</g>
	<g>
		<g>
			<path class="st6" d="M2657.01,1906.38l-2.03-9.04l-65.31-32.5c0,0-101.11,5.63-117.36,70.63c-0.13,0.54-0.21,1.03-0.32,1.55     C2500.75,1947.08,2555.36,1948.25,2657.01,1906.38z"/>
			<path class="st4" d="M2471.99,1937.02c-12.54,62.15,188.71-14.19,188.71-14.19l-3.69-16.46     C2555.36,1948.25,2500.75,1947.08,2471.99,1937.02z"/>
		</g>
		<path class="st4" d="M2481.45,1296.54c0,0,25.22,476.91,77.97,584.65c0,0,43.57,38.4,94.02,24.92l16.05-151.07    c0,0,38.98,143.92,61.91,151.07l96.31-19.2c0,0,27.52-347.43,0-514.83L2481.45,1296.54z"/>
		<g>
			<path class="st7" d="M2727.42,1342.28c62.68-24.46,73.38-264.48,70.32-343.97s-78.77-122.77-158.99-97.75     c-80.21,25.02-151.41,262.37-151.42,262.39c-0.42,5.12-0.88,9.7-1.46,13.66c-7.64,51.97-9.17,137.59-9.17,137.59     c1.08,1.76,2.21,3.49,3.38,5.18C2540.83,1346.37,2674.26,1363.03,2727.42,1342.28z"/>
			<path class="st7" d="M2866.54,1028.88c-45.86-42.81-16.82,189.57-16.82,189.57c-22.93,16.82-93.25,181.36-93.25,181.36     l49.06,46.72c25.56-50.46,109.8-217.69,117.57-244.89C2932.28,1169.53,2912.4,1071.69,2866.54,1028.88z"/>
			<path class="st8" d="M2950.62,1178.46c0-125.03-114.66-286.21-114.66-286.21l-191.1-27.31     c-152.54,93.41-152.41,235.87-157.53,298c0.01-0.02,71.2-237.36,151.42-262.39c80.22-25.02,155.93,18.25,158.99,97.75     s-7.64,319.51-70.32,343.97c-53.17,20.75-186.6,4.09-247.34-22.9c69.37,101.12,276.39,80.43,276.39,80.43     s70.32-164.54,93.25-181.36c0,0-29.05-232.37,16.82-189.57c45.86,42.81,65.74,140.65,56.56,172.75     c-7.77,27.2-92.01,194.43-117.57,244.89l15.15,14.42C2820.68,1460.94,2950.62,1303.49,2950.62,1178.46z"/>
		</g>
		<g>
			<path class="st4" d="M2676.74,947.86c0,0-4.59,37.87,17.58,40.72c22.17,2.85,44.01-10.91,44.94-24.67l-31.46-57.33     L2676.74,947.86z"/>
			<path class="st6" d="M2693.56,1005.95c0.7-11.26-5.4-18.23-12.19-22.51c-15.86,33.45-89.13,189.39-92.53,222.78     c-2.04,19.98,2.66,42.99,8.66,59.78c13.71-3.58,30.24-9.76,39.97-20.03C2656.27,1226.09,2692.03,1030.41,2693.56,1005.95z"/>
			<path class="st4" d="M2684.38,977.1c0,0-1.08,2.26-3.01,6.34c6.79,4.28,12.89,11.25,12.19,22.51     c-1.53,24.46-37.29,220.14-56.1,240.02c-9.72,10.27-26.25,16.45-39.97,20.03c5.24,14.69,11.47,24.61,15.04,23.54     c7.64-2.29,54.27-45.1,60.39-68.03c6.11-22.93,38.22-244.4,38.22-244.4H2684.38z"/>
		</g>
		<path class="st3" d="M2652.4,706.31c0,0,62.68,50.45,29.05,110.07l-9.56,61.15l35.55,35.16l125.36-59.62    c0,0-44.33-29.05-35.16-61.15c9.17-32.1,29.05-134.53,29.05-134.53L2652.4,706.31z"/>
		<path class="st3" d="M2896.12,347.45c-34.4-27.52-123.83-59.62-208.68,0c0,0-19.66,30.82-38.44,60.32    c38.48,10.54,115.49,24.77,173.49,6.01c0,0,2.29,94.09,57.33,114.69c0,0-140.74,233.15-331.76,54.25    c-3.99,39.46,11.44,82.48,68.3,123.46c151.35,109.08,302.7-66.42,316.45-140.34C2946.57,491.92,2930.52,374.97,2896.12,347.45z"/>
		<path class="st2" d="M2879.82,528.47c-55.04-20.6-57.33-114.69-57.33-114.69c-58,18.77-135.01,4.54-173.49-6.01    c-7.67,12.05-15.2,23.88-21.18,33.3c-12.89,20.29-73.14,76.07-79.76,141.65C2739.08,761.62,2879.82,528.47,2879.82,528.47z"/>
		<path class="st2" d="M2899.94,548.85c0,0,74.91-45.86,77.97,0c3.06,45.86-42.81,79.5-77.97,47.39V548.85z"/>
		<path class="st3" d="M2914.46,568.69c0,0,20.64-27.87,33.25-14.11C2960.33,568.34,2937.4,589.69,2914.46,568.69z"/>
		<path class="st2" d="M2601.45,499.55c0,0-23.09-56.18-53.39-21.78c-30.31,34.4,22.44,51.6,39.63,42.42    C2604.89,511.01,2601.45,499.55,2601.45,499.55z"/>
		<path class="st10" d="M2595.59,307.07c-0.02,0.01-0.04,0.02-0.06,0.03c0.03,0,0.06,0,0.1,0    C2595.63,307.1,2595.6,307.07,2595.59,307.07z"/>
		<path class="st6" d="M2568.96,222.97c-35.39,33.24,25.78,83.4,26.63,84.1c12.49-6.73,24.2-11.61,24.2-11.61    C2584.41,278.35,2572.35,248.22,2568.96,222.97z"/>
		<g>
			<path class="st6" d="M2893.74,322.08c-47.01-108.92-201.8-68.79-201.8-68.79c-11.47-9.17-45.86-4.59-64.21-11.47     c-18.35-6.88-8.03-56.18-53.89-22.93c-1.83,1.32-3.41,2.69-4.89,4.08c3.39,25.25,15.45,55.38,50.83,72.49     c0,0-11.72,4.89-24.2,11.61c0.01,0,0.04,0.03,0.04,0.03c-0.03,0-0.07,0-0.1,0c-18.35,9.89-38.32,23.75-25.25,31.93     c21.99,13.76,36.89,0,36.89,0s-32.1,41.28,21.78,21.79c53.89-19.49,156.52,13.41,214.41-10.32c0,0-4.59,20.05,18.35,17.48     c0,0-6.69,67.9,10.43,111.46c20.65,17.77,43.38,23.81,43.38,23.81c0,13.76,20.64,25.22,20.64,25.22     C3050.82,410.37,2893.74,322.08,2893.74,322.08z"/>
			<path class="st4" d="M2861.72,367.97c-22.93,2.57-18.35-17.48-18.35-17.48c-57.89,23.73-160.52-9.17-214.41,10.32     c-53.89,19.49-21.78-21.79-21.78-21.79s-14.91,13.76-36.89,0c-13.07-8.18,6.9-22.04,25.25-31.93     c-26.35-1.22-56.11-1.03-79.02,32.18c-22.93,33.25,38.98,18.35,38.98,18.35s-32.1,11.47,0,43.52     c32.1,32.05,92.87-43.52,150.2-21.73c57.33,21.78,139.82-12.02,138.74-8.03c-14.98,55.12,5.11,88.61,27.71,108.05     C2855.03,435.87,2861.72,367.97,2861.72,367.97z"/>
		</g>
		<path class="st4" d="M2772.07,494.62c0,0,33.47-27.18,55.25,7.22C2827.32,501.84,2808.54,479.38,2772.07,494.62z"/>
		<path class="st4" d="M2637.34,474.53c0,0,33.47-27.18,55.25,7.22C2692.6,481.75,2673.81,459.28,2637.34,474.53z"/>
		<path class="st4" d="M2677.12,550.77c0,0-2.29-46.33,27.52-28.14C2704.64,522.63,2684,525.16,2677.12,550.77z"/>
		<path class="st4" d="M2664.97,603.88c0,0,70.63,22.55,116.49-39.75C2781.46,564.13,2744.54,642.87,2664.97,603.88z"/>
		<path class="st0" d="M2798.25,808.55c0,0,30.22,77.71-93.6,85.36c0,0-47.66-27.07-23.2-77.52c0,0-65.12,15.07-37.6,115.22    c27.52,100.15,64.21-7.31,64.21-7.31s12.23,76.51,48.92,45.36C2793.66,938.49,2900.67,883.46,2798.25,808.55z"/>
		<path class="st6" d="M2896.16,1937.36c-0.2-1.12-0.44-2.27-0.81-3.48c-18.34-61.18-66.64-60.34-66.64-60.34    c-15.6,19.85-110.69,17.46-110.69,17.46s-0.71,14.21-1.52,27.14C2753.95,1934.28,2828.31,1958.91,2896.16,1937.36z"/>
		<path class="st4" d="M2716.5,1918.15c-0.38,6.06-0.78,11.84-1.15,15.74c-1.11,11.96,190.53,59.24,180.81,3.48    C2828.31,1958.91,2753.95,1934.28,2716.5,1918.15z"/>
	</g>
	<g>
		<path class="st4" d="M3517.64,1541.12c0,0,122.41-66.94,121.41,54.46c-1.01,121.4,0,355.79,0,355.79s-25.19,26.04-27.05,0    c-1.86-26.04,0-351.7,0-351.7s-0.53-69.98-82.12-42.37L3517.64,1541.12z"/>
		<path class="st8" d="M3529.88,1306.35c0,0-30.32,105.67,13.28,164.25c43.6,58.58,41.18,44.33,41.18,44.33l64.25-26.13    c0,0-33.11-22.59-37.2-50.85c-3.84-26.55,22.21-65.73,22.21-65.73L3529.88,1306.35z"/>
		<path class="st2" d="M3584.38,1541.12c0,0-12.69-47.36,25.76-49.84c38.44-2.48,35.29-20.04,52.37,2.38v28.49L3584.38,1541.12z"/>
		<path class="st4" d="M4066.65,1562.66c-2.33-39.14-6.13-72.41-10.06-92.05L3785,1522.69c0,0-14.04,220.03,12.19,314.2    c2.41,8.64,5.14,16.25,8.27,22.5c0,0,52.06,14.87,107.89,18.87v-178.01l24.87,178.98c32.66,0.12,64.17-4.77,84.88-19.83    C4068.28,1826.53,4073.16,1671.76,4066.65,1562.66z"/>
		<path class="st8" d="M3794.3,1430.51c0,0-27.9-180.44-40.03-174.86c-12.12,5.58-34.38-57.67-34.38-57.67s20.46,93.01,33.48,174.86    c12.96,81.46-118.53,46.72-119.79,46.39c27.76,15.51,63.34,26.48,108.62,26.92c0,0-14.9,5.9-33.6,16.08l0,0L3794.3,1430.51z"/>
		<path class="st7" d="M3922.65,1462.23c-1.86-74.51-18.6-192.03-18.6-192.03s59.31,227.34,163.37,170.45    c-5.09-135.02-149.98-484.3-418.23-328.67c0,0,31.92,158.22-106.03,199.59c0,0,20.1,68.38,90.42,107.66    c1.26,0.33,132.75,35.07,119.79-46.39c-13.02-81.85-33.48-174.86-33.48-174.86s22.26,63.25,34.38,57.67    c12.12-5.58,40.03,174.86,40.03,174.86l-85.69,31.72l0,0c-23.11,12.57-52.04,31.67-65.93,54.3l41.85,63.25    c0,0,93.01-5.95,133.94-31.81C3818.47,1547.97,3924.51,1536.74,3922.65,1462.23z"/>
		<path class="st8" d="M3904.05,1270.2c0,0,16.74,117.53,18.6,192.03c1.86,74.51-104.18,85.74-104.18,85.74s191.6-9.12,239.97-61.2    c6.85-7.38,9.82-23.83,8.98-46.12C3963.36,1497.54,3904.05,1270.2,3904.05,1270.2z"/>
		<path class="st6" d="M3938.22,1879.22c0,0-47.19,11.23-62.07,54.71c-14.88,43.48,78.13,36.51,122.77,0    c44.65-36.51,59.42-50.02,31.57-81.4C4030.49,1852.53,3972.59,1880.98,3938.22,1879.22z"/>
		<path class="st6" d="M3809.53,1856.67c0,0-48.48,1.77-71.59,41.49c-23.11,39.72,69.46,51.1,120.4,24.05    c50.93-27.06,68.06-37.41,46.9-73.64C3905.24,1848.57,3842.89,1865.13,3809.53,1856.67z"/>
		<path class="st3" d="M3938.22,1879.22c0,0-31.58,48.55,35.59,18.2c67.17-30.35,56.68-44.89,56.68-44.89    S3975.18,1881.48,3938.22,1879.22z"/>
		<path class="st3" d="M3809.53,1856.67c0,0-35.07,41.8,26.31,23.3c61.39-18.51,69.4-31.39,69.4-31.39    S3828.48,1864.9,3809.53,1856.67z"/>
		<path class="st3" d="M3642.68,1516.53c0,0-67.27-12.32-57.35,31.44c9.92,43.76,23.56,60.15,34.72,47.61    c11.16-12.53,13.53-30.13,13.53-30.13s6.89,37.91,47.53,9.15"/>
		<path class="st2" d="M3303.2,1153.71c152.54-3.72,180.44-146.42,180.44-146.42s-31.62-52.28,3.72-95.4    c13.91-16.97,27.24-28.29,38.29-35.8c-15.27-39.46-41.02-72.54-82.94-77.68c-91.15-11.16-165.38,40.6-213.93,132.08    c0,0-7.44,29.76-27.9,48.37c-6.52,5.93-18.13,29.23-24.98,59.49C3187.51,1094.16,3219.26,1155.75,3303.2,1153.71z"/>
		<path class="st3" d="M3487.36,911.88c-35.34,43.12-3.72,95.4-3.72,95.4s-27.9,142.7-180.44,146.42    c-83.94,2.05-115.69-59.55-127.29-115.37c-14.65,64.72-7.51,161.3,117.99,187.92c184.16,39.06,247.41-165.56,251.13-219.51    c2.01-29.14-1.44-84.31-19.37-130.67C3514.6,883.59,3501.27,894.91,3487.36,911.88z"/>
		<path class="st4" d="M3362.61,975.24c0,0,40.92-14.63,54.57,24.31C3417.18,999.55,3413.46,945.48,3362.61,975.24z"/>
		<path class="st4" d="M3247.68,950.77c0,0,40.92-14.63,54.57,24.31C3302.25,975.07,3298.53,921,3247.68,950.77z"/>
		<path class="st4" d="M3260.41,1031.18c0,0,14.22-44.12,41.84-20.82C3302.25,1010.37,3281.5,1005.14,3260.41,1031.18z"/>
		<circle class="st0" cx="3326.14" cy="997.95" r="17.36"/>
		<path class="st0" d="M3298.69,982.93c0,9.59-7.77,17.36-17.36,17.36c-9.59,0-17.36-7.77-17.36-17.36    c0-9.59,7.77-17.36,17.36-17.36C3290.92,965.56,3298.69,973.34,3298.69,982.93z"/>
		<polygon class="st0" points="3292.66,987.16 3314.98,993.98 3311.88,997.95 3290.8,992.56   "/>
		<path class="st4" d="M3260.41,1070.87c0,0,43.41,12.65,70.69-17.24C3331.1,1053.63,3310.02,1101.87,3260.41,1070.87z"/>
		<path class="st3" d="M3290.8,913.37c0,0,26.66,0.18,40.3,13.11c13.64,12.93,44.42-12.93,58.79,0c0,0-2.36-15.23-34.61-6.29    C3323.04,929.13,3331.1,900.97,3290.8,913.37z"/>
		<path class="st3" d="M3320.04,895.16c0,0,15.6,0.11,23.58,7.67c7.98,7.56,25.98-7.56,34.39,0c0,0-1.38-8.91-20.24-3.68    C3338.91,904.38,3343.62,887.91,3320.04,895.16z"/>
		<path class="st2" d="M3494.8,1031.18c0,0,54.57-45.89,68.21,0c13.64,45.89-48.37,41.52-63.25,36.26L3494.8,1031.18z"/>
		<path class="st3" d="M3507.2,1046.06c0,0,22.08-32.24,33.98-14.88C3553.09,1048.54,3507.2,1046.06,3507.2,1046.06z"/>
		<path class="st4" d="M3507.2,958.45c-13.64,12.24-23.77-29.91-28.76-57.45c-6.49,2.65-10.92,4.02-10.92,4.02    s13.64,40.6,18.6,70.06c4.96,29.46,29.76,0,29.76,0s-5.74,94.64,29.5,24.48c1.12-2.24,2.15-4.46,3.09-6.68    C3531.5,990.1,3522.71,944.54,3507.2,958.45z"/>
		<path class="st6" d="M3523.29,870.24c-10.76,15.05-31.91,25.47-44.85,30.76c5,27.53,15.12,69.68,28.76,57.45    c15.51-13.91,24.3,31.65,41.27,34.43C3577.02,925.68,3523.29,870.24,3523.29,870.24z"/>
		<path class="st4" d="M3220.29,904.52c-10.33,20.64,5.44,34.73,8.5,25.96c1.51-4.32,7.09-11.71,14.08-19.85    C3231.64,911.74,3224.64,908.61,3220.29,904.52z"/>
		<path class="st6" d="M3281.33,870.24l-6.36-6.25c-33.04,13.53-48.51,28.2-54.67,40.52c4.34,4.09,11.34,7.22,22.57,6.11    C3258.54,892.35,3281.33,870.24,3281.33,870.24z"/>
		<path class="st3" d="M3406.02,1186.94c0,0,77.09-13.02,97.55,13.02c20.46,26.04,0,77.41,65.11,69.4    c65.11-8.01,81.85-112.18,63.25-151.25c0,0-33.48,44.27-139.52-60.64L3406.02,1186.94z"/>
		<path class="st0" d="M3515.05,1231.18c0,0,34.62,37.02,70.9,17.03c36.29-19.99,52.88-118.82,45.97-130.1    c-6.91-11.28,13.56-26.16,30.3-9.42c16.74,16.74,50.76,264.54-53.95,177.9C3608.28,1286.6,3503.67,1405.75,3515.05,1231.18z"/>
	</g>
</g>
</svg>
